<?xml version="1.0" encoding="UTF-8" standalone="no"?>
<!DOCTYPE svg PUBLIC "-//W3C//DTD SVG 1.1//EN" "http://www.w3.org/Graphics/SVG/1.1/DTD/svg11.dtd">
<svg width="100%" height="100%" viewBox="0 0 105 105" version="1.1" xmlns="http://www.w3.org/2000/svg" xmlns:xlink="http://www.w3.org/1999/xlink" xml:space="preserve" style="fill-rule:evenodd;clip-rule:evenodd;stroke-linejoin:round;stroke-miterlimit:1.5;">
    <g id="Logo" transform="matrix(0.732601,0,0,0.732601,-20.2106,-7.02381)">
        <g transform="matrix(1.62495,0,0,1.62495,47.358,-75.5485)">
            <path d="M34.535,66C28.401,67.844 25,74.4 25,78C25,81.311 27.689,84 31,84C34.311,84 37.038,82.626 37,79.2C36.983,77.662 35.135,75.237 34.575,73.947C34.046,72.728 33.105,72.048 34.535,66Z" style="fill:none;stroke:rgb(89,89,105);stroke-width:1.26px;"/>
        </g>
        <g transform="matrix(1.62495,0,0,1.62495,-6.26526,-2.42592)">
            <path d="M59.439,28.032C60.23,28.217 60.715,28.618 61.118,29.027C62.306,30.233 65.6,29.509 66.84,28" style="fill:none;stroke:rgb(89,89,105);stroke-width:1.26px;stroke-linecap:round;"/>
        </g>
        <g transform="matrix(1.82,0,0,1.82,-69.1,-17.94)">
            <circle cx="92.5" cy="54.5" r="37.5" style="fill:none;stroke:rgb(89,89,105);stroke-width:1.12px;stroke-linecap:round;"/>
        </g>
        <g transform="matrix(1.625,0,0,1.625,25.8719,4.74133)">
            <path d="M43.814,23.752C44.201,23.712 46.652,23.651 44.06,22.364C43.77,22.219 45.18,21.786 45.325,21.5C45.538,21.079 44.676,20.556 44.893,20.13C44.984,19.951 45.065,19.745 45.17,19.608C45.192,19.58 46.302,18.471 46.299,18.468C46.278,18.447 45.306,19.402 45.291,19.413C45.116,19.542 44.983,19.7 44.811,19.826C44.525,20.037 44.15,20.23 43.931,20.515C43.608,20.937 43.298,21.385 43.013,21.816C42.862,22.045 42.771,22.287 42.638,22.513C42.588,22.598 41.729,23.658 41.73,23.604" style="fill:rgb(89,89,105);"/>
            <path d="M46.374,16.999L46.429,17.003L46.483,17.009L46.538,17.017L46.593,17.027L46.647,17.039L46.7,17.053L46.753,17.069L46.805,17.087L46.857,17.107L46.907,17.129L46.957,17.153L47.006,17.179L47.054,17.206L47.101,17.236L47.147,17.267L47.191,17.299L47.234,17.334L47.276,17.37L47.317,17.407L47.356,17.446L47.394,17.487L47.43,17.528L47.464,17.572L47.497,17.616L47.528,17.662L47.558,17.709L47.585,17.756L47.611,17.805L47.635,17.855L47.657,17.906L47.677,17.957L47.696,18.009L47.712,18.062L47.726,18.116L47.738,18.169L47.749,18.224L47.757,18.278L47.763,18.333L47.767,18.388L47.769,18.444L47.769,18.499L47.766,18.554L47.762,18.609L47.756,18.664L47.747,18.719L47.737,18.773L47.724,18.827L47.71,18.88L47.693,18.933L47.675,18.985L47.654,19.036L47.632,19.087L47.608,19.137L47.582,19.185L47.554,19.233L47.524,19.28L47.493,19.325L47.46,19.369L47.425,19.412L47.389,19.454L47.36,19.486L47.303,19.545L47.171,19.678L46.786,20.065L46.534,20.319L46.574,20.391L46.621,20.484L46.65,20.548L46.676,20.608L46.701,20.672L46.726,20.741L46.75,20.815L46.771,20.894L46.791,20.979L46.807,21.069L46.82,21.165L46.827,21.266L46.83,21.372L46.825,21.482L46.814,21.596L46.794,21.711L46.767,21.827L46.731,21.942L46.688,22.055L46.632,22.175L46.562,22.297L46.486,22.408L46.47,22.427L46.507,22.495L46.546,22.574L46.582,22.659L46.615,22.749L46.644,22.845L46.669,22.946L46.688,23.053L46.7,23.164L46.705,23.278L46.702,23.394L46.691,23.511L46.672,23.627L46.644,23.741L46.609,23.851L46.568,23.955L46.521,24.054L46.47,24.147L46.416,24.232L46.359,24.311L46.301,24.383L46.242,24.448L46.184,24.507L46.125,24.561L46.058,24.618L45.958,24.693L45.852,24.763L45.751,24.821L45.655,24.869L45.564,24.91L45.478,24.945L45.394,24.975L45.314,25.002L45.237,25.025L45.162,25.046L45.089,25.064L45.018,25.08L44.949,25.095L44.882,25.108L44.812,25.121L44.69,25.14L44.568,25.157L44.454,25.171L44.347,25.182L44.249,25.191L44.159,25.199L44.022,25.209L43.979,25.213L43.945,25.216L43.889,25.22L43.834,25.221L43.778,25.221L43.723,25.219L43.667,25.214L43.612,25.208L43.557,25.199L43.502,25.188L43.448,25.175L43.395,25.16L43.342,25.144L43.289,25.125L43.238,25.104L43.187,25.081L43.137,25.056L43.088,25.03L43.04,25.002L42.994,24.971L42.948,24.939L42.904,24.906L42.861,24.871L42.819,24.834L42.779,24.795L42.74,24.755L42.703,24.714L42.702,24.713L42.664,24.744L42.623,24.776L42.581,24.806L42.577,24.809L42.536,24.837L42.493,24.864L42.449,24.889L42.405,24.913L42.36,24.935L42.357,24.936L42.309,24.958L42.259,24.978L42.209,24.996L42.159,25.013L42.108,25.027L42.056,25.04L42.004,25.051L41.952,25.059L41.899,25.066L41.846,25.071L41.793,25.075L41.74,25.076L41.687,25.075L41.634,25.073L41.632,25.073L41.577,25.068L41.522,25.061L41.468,25.052L41.414,25.041L41.36,25.028L41.307,25.013L41.254,24.997L41.202,24.978L41.151,24.957L41.101,24.934L41.051,24.91L41.003,24.883L40.955,24.855L40.909,24.825L40.864,24.793L40.82,24.76L40.777,24.725L40.736,24.688L40.696,24.65L40.657,24.611L40.62,24.57L40.585,24.527L40.551,24.484L40.519,24.439L40.488,24.393L40.46,24.345L40.433,24.297L40.408,24.248L40.385,24.198L40.363,24.147L40.344,24.095L40.343,24.094L40.326,24.041L40.31,23.987L40.297,23.933L40.285,23.879L40.276,23.824L40.269,23.769L40.264,23.713L40.261,23.658L40.26,23.602L40.261,23.547L40.264,23.491L40.269,23.436L40.277,23.381L40.286,23.326L40.298,23.271L40.311,23.217L40.327,23.164L40.345,23.111L40.364,23.059L40.386,23.008L40.409,22.957L40.435,22.908L40.462,22.86L40.491,22.812L40.522,22.766L40.555,22.721L40.589,22.677L40.625,22.634L40.662,22.593L40.701,22.554L40.742,22.515L40.754,22.505L40.757,22.501L40.812,22.438L40.878,22.359L40.952,22.271L41.028,22.178L41.185,21.986L41.324,21.813L41.377,21.745L41.4,21.716L41.406,21.703L41.421,21.675L41.459,21.599L41.503,21.51L41.554,21.408L41.586,21.347L41.619,21.285L41.656,21.219L41.696,21.15L41.74,21.079L41.783,21.011L41.9,20.836L42.015,20.664L42.134,20.492L42.255,20.318L42.378,20.143L42.504,19.968L42.633,19.794L42.769,19.615L42.813,19.559L42.862,19.501L42.911,19.445L42.96,19.393L43.009,19.344L43.058,19.297L43.106,19.252L43.158,19.206L43.245,19.133L43.334,19.062L43.419,18.998L43.499,18.941L43.576,18.888L43.647,18.84L43.769,18.759L43.873,18.689L43.91,18.664L43.939,18.643L43.942,18.641L43.946,18.638L43.953,18.631L43.961,18.624L44,18.589L44.05,18.543L44.116,18.482L44.194,18.411L44.246,18.367L44.3,18.322L44.331,18.297L44.429,18.202L44.589,18.047L44.775,17.868L44.963,17.688L45.055,17.602L45.14,17.523L45.221,17.449L45.299,17.381L45.357,17.333L45.394,17.305L45.43,17.279L45.466,17.254L45.502,17.23L45.512,17.224L45.555,17.198L45.599,17.173L45.644,17.15L45.69,17.128L45.736,17.108L45.783,17.09L45.786,17.089L45.838,17.071L45.89,17.055L45.942,17.041L45.995,17.029L46.049,17.018L46.103,17.01L46.157,17.004L46.211,17L46.265,16.998L46.32,16.997L46.374,16.999ZM40.996,22.328L40.97,22.345L41.012,22.321L41.029,22.312L40.996,22.328ZM44.337,18.291L44.332,18.296L44.358,18.276L44.337,18.291Z" style="fill:rgb(89,89,105);"/>
        </g>
        <g transform="matrix(1.95,0,0,2.00735,5.65,-18.7162)">
            <ellipse cx="47.5" cy="60" rx="2.5" ry="17" style="fill:rgb(89,89,105);"/>
        </g>
    </g>
</svg>
